/* XPM */
static char *b045eb9b8a0b491389631f18013d6db3yRm4iYjfL9idIKnl[] = {
/* columns rows colors chars-per-pixel */
"42 48 26 1 ",
"  c #403F3F",
". c None",
"X c #1C0D02",
"o c gray19",
"O c gray33",
"+ c #606060",
"@ c #808080",
"# c #301602",
"$ c #6B350A",
"% c #140901",
"& c #4B2507",
"* c #070300",
"= c black",
"- c #292E32",
"; c #353D40",
": c #505C60",
"> c #617072",
", c #889694",
"< c #80878C",
"1 c #9EA8A7",
"2 c #6D7177",
"3 c #A6AFAB",
"4 c #7D3007",
"5 c #B7BFBD",
"6 c #AF5423",
"7 c #9A4010",
/* pixels */
"        .                        .XXXXXXXX",
"oo OOO+@.oo OOOOOOO++ o   OOOO+++.X####$XX",
"  OO++++.  OOOOOOO+++  OOOOOO++++.X%###%%%",
"OOO+++@@.OOOOOOO++++@ OOO++++++@@.%X%%%%&%",
"      OO.oo         O o        OO.**%**XX#",
"        .                        .#***XXXX",
"ooo  O++.OOOO+   O OO+   O OO+   .%=X==%%%",
"        .                        .==%%==%%",
"  Ooo   .ooo oo    O oo    O oo  .=%%%====",
"        .                        .==%=====",
"OOO    O.    +   O OO+   O OO+   .=====%%=",
"        .                        .========",
"OO++oo  .ooo oo  OO+ oo  OO+ oo  .========",
"        .                        .==%=====",
"   OOO++.    +   O OO+   O OO+   .========",
"        .                        .========",
"..........................................",
"        . O+ o OOOOOOOOOOOO++ o  .-;;;;;;:",
"oo OOO++. ++  OOOOOOOOOOOO+++  O .;>>>>>>,",
"  OO++++. +@ OOOOOOOOOOO++++@ OO .;>>>>>>,",
"OOO+++@@.  O o              O o  .;>>>>>>,",
"        .    o              O    .;>>>>>>,",
"oo OOO++. o  o              O o  .;>>>>>>,",
"  OO++++.                        .;>>>>>>,",
"OOO+++@@.  O  O+ <11111<2  O+ oo .:,,,,,,3",
"        .     O+ 44444444  O+    .........",
"oo OOO++. O+  O+ 15676764  O+ +  .........",
"  OO++++.     O+ 44676754  O+    .........",
"OOO+++@@. o   O+ 67676142  O+ oo .........",
"        .     O+ 156764<4  O+    .........",
"oo OOO++. O+  O+ 44676744  O+ +  .........",
"  OO++++.        15555512        .........",
"OOO+++@@..................................",
"        . O+ o OOOOOOOOOOOO++ o  .........",
"oo OOO++. ++  OOOOOOOOOOOO+++  O .........",
"  OO++++. +@ OOOOOOOOOOO++++@ OO .........",
"OOO+++@@.  O o              O o  .........",
"        .    o              O    .........",
"oo OOO++. o  o              O o  .........",
"  OO++++.                        .........",
"OOO+++@@.  O  O+ <%%%====  O+ oo .........",
"        .     O+ 4=%=====  O+    .........",
"oo OOO++. O+  O+ 1====%%=  O+ +  .........",
"  OO++++.     O+ 4=======  O+    .........",
"OOO+++@@. o   O+ 6=======  O+ oo .........",
"        .     O+ 1=%=====  O+    .........",
"oo OOO++. O+  O+ 4=======  O+ +  .........",
"  OO++++.        1=======        ........."
};
