/* XPM */
static char *_4019d89e3954e2bf527a35e7be066e7E8FoRGG8NXJGBDtv[] = {
/* columns rows colors chars-per-pixel */
"13 6 6 1 ",
"  c black",
". c None",
"X c white",
"o c #BAB891",
"O c #F1E4BB",
"+ c #9A9C78",
/* pixels */
"   ....XXX...",
" oO  ..XoOXX.",
" +oOO .X+oOOX",
". +o ...X+oX.",
". + ....X+X..",
".. ......X..."
};
