/* XPM */
static char *_56743b132454f9e813563ec5d742994fHmiuxLRfHU6ZnBJ[] = {
/* columns rows colors chars-per-pixel */
"112 96 2 1 ",
"  c None",
". c black",
/* pixels */
"                                                                                                                ",
"                                                                                                                ",
"          .     . .            .    .   .   ..      .       .    .                                            . ",
"          .     . .    . .    ....  .   .  .  .     .      .      .      .      .                             . ",
"          .     . .   .....  . .       .   .  .     .      .      .    . . .    .                            .  ",
"          .            . .    ...     .     ....           .      .     ...   .....         .....           .   ",
"          .            . .     . .   .     .  .            .      .    . . .    .                          .    ",
"                      .....  ....   .   .  .  .            .      .      .      .      .             .    .     ",
"          .            . .     .    .   .   .. .            .    .                     .             .    .     ",
"                                                                                      .                         ",
"                                                                                                                ",
"                                                                                                                ",
"                                                                                                                ",
"                                                                                                                ",
"  ...     .     ...    ...    .  .  .....   ...   .....   ...    ...                                       ...  ",
" .   .   ..    .   .  .   .   .  .  .      .          .  .   .  .   .    .      .       ..         ..     .   . ",
" .  ..    .        .      .  .   .  ....   .          .  .   .  .   .    .      .     ..    .....    ..       . ",
" . . .    .       .     ..   .....      .  ....      .    ...    ....                .                 .     .  ",
" ..  .    .      .        .      .      .  .   .    .    .   .      .                 ..    .....    ..     .   ",
" .   .    .     .     .   .      .  .   .  .   .    .    .   .  .   .    .      .       ..         ..           ",
"  ...   .....  .....   ...       .   ...    ...     .     ...    ...     .      .                           .   ",
"                                                                               .                                ",
"                                                                                                                ",
"                                                                                                                ",
"                                                                                                                ",
"                                                                                                                ",
"  ...    ...   ....    ...   ....   .....  .....   ...   .   .  .....      .  .   .  .      .   .  .   .   ...  ",
" .  ..  .   .  .   .  .   .  .   .  .      .      .   .  .   .    .        .  .  .   .      .. ..  .   .  .   . ",
" . . .  .   .  .   .  .      .   .  .      .      .      .   .    .        .  . .    .      . . .  ..  .  .   . ",
" . . .  .   .  ....   .      .   .  ....   ....   . ...  .....    .        .  ..     .      .   .  . . .  .   . ",
" .  ..  .....  .   .  .      .   .  .      .      .   .  .   .    .    .   .  . .    .      .   .  .  ..  .   . ",
" .      .   .  .   .  .   .  .   .  .      .      .   .  .   .    .    .   .  .  .   .      .   .  .   .  .   . ",
"  ...   .   .  ....    ...   ....   .....  .       ...   .   .  .....   ...   .   .  .....  .   .  .   .   ...  ",
"                                                                                                                ",
"                                                                                                                ",
"                                                                                                                ",
"                                                                                                                ",
"                                                                                                                ",
" ....    ...   ....    ...   .....  .   .  .   .  .   .  .   .  .   .  .....    ..   .       ..      .          ",
" .   .  .   .  .   .  .   .    .    .   .  .   .  .   .  .   .  .   .      .    .    .        .     . .         ",
" .   .  .   .  .   .  .        .    .   .  .   .  .   .   . .    . .      .     .     .       .    .   .        ",
" ....   .   .  ....    ...     .    .   .  .   .  .   .    .      .      .      .      .      .                 ",
" .      .   .  .   .      .    .    .   .   . .   . . .   . .     .     .       .       .     .                 ",
" .      .   .  .   .  .   .    .    .   .   . .   .. ..  .   .    .    .        .        .    .                 ",
" .       ...   .   .   ...     .     ...     .    .   .  .   .    .    .....    ..       .   ..           ..... ",
"           ..                                                                                                   ",
"                                                                                                                ",
"                                                                                                                ",
"                                                                                                                ",
"  .                                                                                                             ",
"   .           .                 .           ..          .        .        .  .      ..                         ",
"               .                 .          .  .         .                    .       .                         ",
"         ....  ....    ...    ....   ...    .      ....  ....    ..       ..  .   .   .     ....   ....    ...  ",
"        .   .  .   .  .   .  .   .  .   .  ....   .   .  .   .    .        .  .  .    .     . . .  .   .  .   . ",
"        .   .  .   .  .      .   .  .....   .     .   .  .   .    .        .  ...     .     . . .  .   .  .   . ",
"        .   .  .   .  .   .  .   .  .       .     .   .  .   .    .        .  .  .    .     . . .  .   .  .   . ",
"         ....  ....    ...    ....   ...    .      ....  .   .  .....      .  .   .    ...  . . .  .   .   ...  ",
"                                                      .                .   .                                    ",
"                                                   ...                  ...                                     ",
"                                                                                                                ",
"                                                                                                                ",
"                                                                                                                ",
"                              .                                                  .     .     .                  ",
"                              .                                                 .      .      .                 ",
" ....    ....  . ..    ....  ....   .   .  .   .  .   .  .   .  .   .  .....    .      .      .     .  .        ",
" .   .  .   .  ..  .  .       .     .   .  .   .  .   .   . .   .   .     .    .       .       .   . ..         ",
" .   .  .   .  .       ...    .     .   .  .   .  . . .    .    .   .    .      .      .      .                 ",
" .   .  .   .  .          .   .     .   .   . .   . . .   . .   .   .   .       .      .      .           . . . ",
" ....    ....  .      ....     ...   ....    .     . .   .   .   ....  .....     .     .     .            . . . ",
" .          .                                                       .                                           ",
" .          .                                                    ...                                            ",
"                                                                                                                ",
"                                                                                                                ",
"                                                                                                                ",
"   .      .                                 ...    ...                   .                                ..... ",
"                                           .. ..  .  ..                  .                                      ",
"   .      .      .      .      .     ...   . . .  . . .           .    .....   .  .   ...   .  .                ",
"  .       .     ....   ...   ....    ...   . ...  . . .   . .            .    .  .    ...    .  .  .....        ",
" .        .    .....  .....  .....  .....  . . .  .  ..    .    .....    .     .  .   ...   .  .       .        ",
" .   .    .     ....   ...   ....    ...   .. ..  . . .   . .                                                   ",
"  ...     .      .     ...     .      .     ...    ...            .    .....                                    ",
"                                                                                                                ",
"                                                                                                                ",
"                                                                                                                ",
"                                                                                                                ",
"                                                                                                                ",
"  .      .     ..     ..       .    ...     .     ...     .      .      ..     ...    ..      ..   .   .    .   ",
" . .    ..       .      .    . .    .      .        .    . .    . .    .  .   .  .   .  .    .  .   . .    ...  ",
" . .     .      .      .     ...    ..     ..      .      .      ..    .  .   .  .   .  .    .       .    . . . ",
" . .     .     .        .      .      .    . .     .     . .      .     ..    .  .   .  .   ....   .....  . .   ",
"  .     ...    ...    ..       .    ..      .      .      .      .             ...    ..     .       .    . . . ",
"                                                                                             .     .....   ...  ",
"                                                                                            .....    .      .   ",
"                                                                                                                ",
"                                                                                                                ",
"                                                                                                                "
};
